<svg xmlns="http://www.w3.org/2000/svg" viewBox="0 0 74.16 74.34"><defs><style>.cls-1{fill:#10e566;}.cls-2{fill:#fcfcfc;}</style></defs><g id="Layer_2" data-name="Layer 2"><g id="OBJECTS"><path class="cls-1" d="M31.88,62.51A189.23,189.23,0,0,1,46.37,46.12a13,13,0,1,0-22.22-9.89c-.37,5.55-.78,11.11-1.57,16.62l-2.77,19.2a2,2,0,0,0,3.56,1.51ZM35.28,29A8.25,8.25,0,0,1,39.73,44.9c-.28.1-.56.17-.84.24a8,8,0,0,1-1.18.17,8.23,8.23,0,0,1-7.18-3.2,8.32,8.32,0,0,1-1.06-1.83A7.26,7.26,0,0,1,29,38.89,8.25,8.25,0,0,1,35.28,29Z"/><path class="cls-2" d="M7.62,59.6a2.13,2.13,0,0,0,3.81-1.12v0a29.13,29.13,0,0,1,3-10.72,2.14,2.14,0,0,0,.07-1.7,25.65,25.65,0,0,1-1.23-4.16A24.25,24.25,0,1,1,46.1,59.6,2.08,2.08,0,0,0,44.84,61a37.09,37.09,0,0,1-4.08,9.43l0,0a2.15,2.15,0,0,0,2.17,3.24c.54-.09,1.08-.18,1.61-.29A37.05,37.05,0,1,0,7.62,59.6Z"/></g></g></svg>