<svg xmlns="http://www.w3.org/2000/svg" viewBox="0 0 74.97 73.59"><defs><style>.cls-1{fill:#fcfcfc;}.cls-2{fill:#10e566;}</style></defs><g id="Layer_2" data-name="Layer 2"><g id="OBJECTS"><path class="cls-1" d="M74.94,38.56a37.35,37.35,0,0,1-37.43,35h-.38a5.51,5.51,0,0,1-3.82-9.4l.41-.41a5.14,5.14,0,0,0,0-7.28,5.29,5.29,0,0,0-7.39.1l-6.69,6.69a5.62,5.62,0,0,1-7.81.13A37.51,37.51,0,0,1,27,.07a1.53,1.53,0,0,1,1.51,2.55h0A5.26,5.26,0,0,0,28.32,10a5.16,5.16,0,0,0,7.36.07l8.59-8.6A4.54,4.54,0,0,1,48.81.3l.1,0a4.54,4.54,0,0,1,1.87,7.53L39.85,18.8a3.32,3.32,0,0,1-2.33,1h0A16.33,16.33,0,1,0,50.6,26.33a3.11,3.11,0,0,1,.33-4L60,13.21a5.05,5.05,0,0,1,7.63.55l.06.08a5.07,5.07,0,0,1-.48,6.61L60,27.73A5.15,5.15,0,0,0,67.23,35l.18-.18A4.42,4.42,0,0,1,75,38.2C75,38.32,75,38.44,74.94,38.56Z"/><path class="cls-2" d="M44,36.79a6.51,6.51,0,1,1-6.51-6.5A6.51,6.51,0,0,1,44,36.79Z"/></g></g></svg>