<svg xmlns="http://www.w3.org/2000/svg" viewBox="0 0 76.62 76.88"><defs><style>.cls-1{fill:#10e566;}.cls-2{fill:#fcfcfc;}</style></defs><g id="Layer_2" data-name="Layer 2"><g id="OBJECTS"><path class="cls-1" d="M21.43,25.15A4.43,4.43,0,1,1,17,20.76,4.42,4.42,0,0,1,21.43,25.15Z"/><path class="cls-1" d="M35.84,30.56l1.46,2a4.71,4.71,0,0,0,5,1.87l.07,0a7.19,7.19,0,0,1,7.74,3.42,6.78,6.78,0,0,1-12,6.3l0-.07a10.51,10.51,0,0,0-6-5.31l-1-.33a13.27,13.27,0,1,0,4.77-7.87Z"/><path class="cls-2" d="M38.69,32.56a167.15,167.15,0,0,1-12.75-14.5A11.44,11.44,0,1,0,14.82,36.42c4.82.94,9.64,1.91,14.38,3.22l16.51,4.54a1.76,1.76,0,0,0,1.71-3ZM9.75,25.88a7.28,7.28,0,0,1,14.39-2.14,6.32,6.32,0,0,1,.11.76,7.41,7.41,0,0,1,0,1.05,7.29,7.29,0,0,1-3.6,5.93,7.07,7.07,0,0,1-1.72.73,7.49,7.49,0,0,1-1.27.23A7.27,7.27,0,0,1,9.75,25.88Z"/><path class="cls-2" d="M53.2,14.28A28.44,28.44,0,1,1,10,41.87a5,5,0,0,0-2.34-3.74h0A5,5,0,0,0,0,43,38.44,38.44,0,1,0,25.29,2.24a5,5,0,0,0-.93,9h0a5.07,5.07,0,0,0,4.36.44A28.34,28.34,0,0,1,53.2,14.28Z"/></g></g></svg>