<svg xmlns="http://www.w3.org/2000/svg" viewBox="0 0 76.87 76.33"><defs><style>.cls-1{fill:#fcfcfc;}.cls-2{fill:#10e566;}</style></defs><g id="Layer_2" data-name="Layer 2"><g id="OBJECTS"><path class="cls-1" d="M44.11,10l.09,0a3.05,3.05,0,0,0,3.71-3v-4a3,3,0,0,0-2.47-3l-.23,0a3,3,0,0,0-3.59,3v4A3.06,3.06,0,0,0,44.11,10Z"/><path class="cls-1" d="M66.88,37.9A28.44,28.44,0,1,1,20.64,15.73a5.09,5.09,0,0,0,1.95-4h0A5,5,0,0,0,14.4,7.9a38.44,38.44,0,1,0,48-.07,5,5,0,0,0-8.11,3.94h0a5.06,5.06,0,0,0,1.93,3.93A28.39,28.39,0,0,1,66.88,37.9Z"/><path class="cls-1" d="M29,3.07v4a3,3,0,0,0,3.71,3l.09,0a3.06,3.06,0,0,0,2.49-3V3a3,3,0,0,0-3.53-3l-.33.06A3,3,0,0,0,29,3.07Z"/><path class="cls-2" d="M27.53,39.29h0A2.75,2.75,0,0,0,24.78,42v4.18a1.46,1.46,0,0,1-2.75.67,18.63,18.63,0,1,1,32.8,0,1.45,1.45,0,0,1-2.72-.72V42a2.75,2.75,0,0,0-2.75-2.75h0A2.75,2.75,0,0,0,46.61,42v11a2.63,2.63,0,0,1-1.73,2.47l-.07,0A2.69,2.69,0,0,1,41.19,53V50.2a2.75,2.75,0,0,0-2.75-2.74h0A2.74,2.74,0,0,0,35.7,50.2V53a2.7,2.7,0,0,1-3.63,2.53l-.07,0a2.64,2.64,0,0,1-1.72-2.47V42A2.75,2.75,0,0,0,27.53,39.29Z"/></g></g></svg>