<svg xmlns="http://www.w3.org/2000/svg" xmlns:xlink="http://www.w3.org/1999/xlink" viewBox="0 0 74.11 74.3"><defs><style>.cls-1{fill:url(#New_Gradient_Swatch_4);}.cls-2{fill:url(#New_Gradient_Swatch_3);}</style><linearGradient id="New_Gradient_Swatch_4" x1="19.8" y1="49.12" x2="50.13" y2="49.12" gradientUnits="userSpaceOnUse"><stop offset="0.12" stop-color="#15ffe8"/><stop offset="0.12" stop-color="#17fee6"/><stop offset="0.18" stop-color="#4ee4aa"/><stop offset="0.24" stop-color="#7dce76"/><stop offset="0.3" stop-color="#a4bc4c"/><stop offset="0.36" stop-color="#c2ae2b"/><stop offset="0.41" stop-color="#d8a413"/><stop offset="0.46" stop-color="#e59e05"/><stop offset="0.5" stop-color="#e99c00"/><stop offset="0.94" stop-color="#e23627"/></linearGradient><linearGradient id="New_Gradient_Swatch_3" x1="46.8" y1="-16.42" x2="27.83" y2="87.7" gradientUnits="userSpaceOnUse"><stop offset="0.12" stop-color="#ef8b21"/><stop offset="0.45" stop-color="#e99c00"/><stop offset="0.94" stop-color="#e23627"/></linearGradient></defs><g id="Layer_2" data-name="Layer 2"><g id="Layer_1-2" data-name="Layer 1"><path class="cls-1" d="M31.89,62.47A187.75,187.75,0,0,1,46.38,46.08a13,13,0,1,0-22.22-9.89c-.37,5.55-.78,11.11-1.57,16.62L19.82,72a2,2,0,0,0,3.56,1.51ZM35.29,29a8.26,8.26,0,0,1,4.45,15.9c-.28.1-.56.17-.84.24a6.85,6.85,0,0,1-1.18.17,8.2,8.2,0,0,1-7.18-3.2,7.94,7.94,0,0,1-1.06-1.83A6.69,6.69,0,0,1,29,38.85,8.24,8.24,0,0,1,35.22,29Z"/><path class="cls-2" d="M7.63,59.56a2.13,2.13,0,0,0,3.81-1.12h0a29.13,29.13,0,0,1,3-10.72,2.18,2.18,0,0,0,.07-1.7,25.14,25.14,0,0,1-1.23-4.16,24.25,24.25,0,1,1,32.83,17.7A2.08,2.08,0,0,0,44.85,61a37.25,37.25,0,0,1-4.08,9.43h0a2.14,2.14,0,0,0,2.17,3.24c.54-.09,1.08-.18,1.61-.29A37.07,37.07,0,1,0,7.63,59.56Z"/></g></g></svg>