<svg xmlns="http://www.w3.org/2000/svg" xmlns:xlink="http://www.w3.org/1999/xlink" viewBox="0 0 74.99 73.55"><defs><style>.cls-1{fill:url(#New_Gradient_Swatch_4);}.cls-2{fill:url(#New_Gradient_Swatch_3);}</style><linearGradient id="New_Gradient_Swatch_4" x1="68.12" y1="-1.94" x2="4.24" y2="77.42" gradientUnits="userSpaceOnUse"><stop offset="0.12" stop-color="#15ffe8"/><stop offset="0.12" stop-color="#17fee6"/><stop offset="0.18" stop-color="#4ee4aa"/><stop offset="0.24" stop-color="#7dce76"/><stop offset="0.3" stop-color="#a4bc4c"/><stop offset="0.36" stop-color="#c2ae2b"/><stop offset="0.41" stop-color="#d8a413"/><stop offset="0.46" stop-color="#e59e05"/><stop offset="0.5" stop-color="#e99c00"/><stop offset="0.94" stop-color="#e23627"/></linearGradient><linearGradient id="New_Gradient_Swatch_3" x1="32.36" y1="23.91" x2="43.2" y2="51.27" gradientUnits="userSpaceOnUse"><stop offset="0.12" stop-color="#ef8b21"/><stop offset="0.45" stop-color="#e99c00"/><stop offset="0.94" stop-color="#e23627"/></linearGradient></defs><g id="Layer_2" data-name="Layer 2"><g id="Layer_1-2" data-name="Layer 1"><path class="cls-1" d="M74.92,38.55a37.36,37.36,0,0,1-37.43,35h-.38a5.51,5.51,0,0,1-3.82-9.4l.41-.41a5.15,5.15,0,0,0,0-7.27h0a5.29,5.29,0,0,0-7.39.1l-6.69,6.69a5.62,5.62,0,0,1-7.81.13A37.51,37.51,0,0,1,27,.06a1.53,1.53,0,0,1,1.51,2.55h0A5.25,5.25,0,0,0,28.3,10a5.15,5.15,0,0,0,7.29.13l.07-.06,8.59-8.6A4.54,4.54,0,0,1,48.79.29h.1a4.55,4.55,0,0,1,3,5.69,4.64,4.64,0,0,1-1.11,1.84l-10.93,11a3.31,3.31,0,0,1-2.33,1h0a16.32,16.32,0,1,0,13.08,6.53,3.11,3.11,0,0,1,.33-4L60,13.2a5.05,5.05,0,0,1,7.14,0,4.37,4.37,0,0,1,.49.56l.06.08a5.08,5.08,0,0,1-.48,6.61L60,27.72A5.15,5.15,0,0,0,67.21,35l.18-.18A4.42,4.42,0,0,1,75,38.19.76.76,0,0,1,74.92,38.55Z"/><path class="cls-2" d="M44,36.78a6.51,6.51,0,1,1-6.52-6.5h0A6.51,6.51,0,0,1,44,36.78Z"/></g></g></svg>