<svg xmlns="http://www.w3.org/2000/svg" xmlns:xlink="http://www.w3.org/1999/xlink" viewBox="0 0 76.66 76.89"><defs><style>.cls-1{fill:#10e566;}.cls-2{fill:url(#New_Gradient_Swatch_4);}.cls-3{fill:url(#New_Gradient_Swatch_4-2);}.cls-4{fill:url(#New_Gradient_Swatch_3);}</style><linearGradient id="New_Gradient_Swatch_4" x1="81.55" y1="4.71" x2="-30.97" y2="113.88" gradientUnits="userSpaceOnUse"><stop offset="0.12" stop-color="#15ffe8"/><stop offset="0.12" stop-color="#17fee6"/><stop offset="0.18" stop-color="#4ee4aa"/><stop offset="0.24" stop-color="#7dce76"/><stop offset="0.3" stop-color="#a4bc4c"/><stop offset="0.36" stop-color="#c2ae2b"/><stop offset="0.41" stop-color="#d8a413"/><stop offset="0.46" stop-color="#e59e05"/><stop offset="0.5" stop-color="#e99c00"/><stop offset="0.94" stop-color="#e23627"/></linearGradient><linearGradient id="New_Gradient_Swatch_4-2" x1="5.6" y1="29" x2="48.07" y2="29" xlink:href="#New_Gradient_Swatch_4"/><linearGradient id="New_Gradient_Swatch_3" x1="85.52" y1="-3.51" x2="-15.39" y2="89.91" gradientUnits="userSpaceOnUse"><stop offset="0.12" stop-color="#ef8b21"/><stop offset="0.45" stop-color="#e99c00"/><stop offset="0.94" stop-color="#e23627"/></linearGradient></defs><g id="Layer_2" data-name="Layer 2"><g id="Layer_1-2" data-name="Layer 1"><path class="cls-1" d="M21.47,25.14A4.43,4.43,0,1,1,17,20.75h0A4.4,4.4,0,0,1,21.47,25.14Z"/><path class="cls-2" d="M35.88,30.55l1.46,2a4.73,4.73,0,0,0,5,1.87h.07a7.18,7.18,0,0,1,7.74,3.42,6.78,6.78,0,0,1-12,6.3v-.07a10.43,10.43,0,0,0-6-5.31l-1-.33a13.28,13.28,0,1,0,4.77-7.87Z"/><path class="cls-3" d="M38.73,32.55A170.37,170.37,0,0,1,26,18.05,11.44,11.44,0,1,0,14.86,36.41c4.82.94,9.64,1.91,14.38,3.22l16.51,4.54A1.77,1.77,0,0,0,48,43.06a1.75,1.75,0,0,0-.52-1.89ZM9.79,25.87a7.28,7.28,0,0,1,14.39-2.14,4.8,4.8,0,0,1,.11.76,6.14,6.14,0,0,1,0,1.05A7.3,7.3,0,0,1,19,32.2a7.68,7.68,0,0,1-1.27.23A7.28,7.28,0,0,1,9.79,25.87Z"/><path class="cls-4" d="M53.24,14.27A28.44,28.44,0,1,1,10,41.86,5,5,0,0,0,7.7,38.12h0a5,5,0,0,0-6.91,1.5A5.06,5.06,0,0,0,0,43,38.47,38.47,0,1,0,25.33,2.23a5,5,0,0,0-.93,9h0a5.08,5.08,0,0,0,4.36.44A28.33,28.33,0,0,1,53.24,14.27Z"/></g></g></svg>