<svg xmlns="http://www.w3.org/2000/svg" xmlns:xlink="http://www.w3.org/1999/xlink" viewBox="0 0 76.88 76.39"><defs><style>.cls-1{fill:url(#New_Gradient_Swatch_4);}.cls-2{fill:url(#New_Gradient_Swatch_4-2);}.cls-3{fill:url(#New_Gradient_Swatch_3);}.cls-4{fill:url(#New_Gradient_Swatch_4-3);}</style><linearGradient id="New_Gradient_Swatch_4" x1="37.01" y1="-11.98" x2="23.33" y2="36.02" gradientUnits="userSpaceOnUse"><stop offset="0.12" stop-color="#15ffe8"/><stop offset="0.12" stop-color="#17fee6"/><stop offset="0.18" stop-color="#4ee4aa"/><stop offset="0.24" stop-color="#7dce76"/><stop offset="0.3" stop-color="#a4bc4c"/><stop offset="0.36" stop-color="#c2ae2b"/><stop offset="0.41" stop-color="#d8a413"/><stop offset="0.46" stop-color="#e59e05"/><stop offset="0.5" stop-color="#e99c00"/><stop offset="0.94" stop-color="#e23627"/></linearGradient><linearGradient id="New_Gradient_Swatch_4-2" x1="38.39" y1="-8.56" x2="57.49" y2="32.21" xlink:href="#New_Gradient_Swatch_4"/><linearGradient id="New_Gradient_Swatch_3" x1="32.65" y1="-2.73" x2="44.52" y2="80.63" gradientUnits="userSpaceOnUse"><stop offset="0.12" stop-color="#ef8b21"/><stop offset="0.45" stop-color="#e99c00"/><stop offset="0.94" stop-color="#e23627"/></linearGradient><linearGradient id="New_Gradient_Swatch_4-3" x1="67.39" y1="27.75" x2="-1.51" y2="52.27" xlink:href="#New_Gradient_Swatch_4"/></defs><g id="Layer_2" data-name="Layer 2"><g id="Layer_1-2" data-name="Layer 1"><path class="cls-1" d="M29,3.13v4a3,3,0,0,0,2.91,3.08,3.06,3.06,0,0,0,.8-.08h.09a3.06,3.06,0,0,0,2.49-3V3.06A3,3,0,0,0,32.34,0a3.68,3.68,0,0,0-.58,0l-.33.06A3,3,0,0,0,29,3.13Z"/><path class="cls-2" d="M44.11,10.06h.09a3,3,0,0,0,3.71-3v-4a3,3,0,0,0-2.47-3h-.23a3,3,0,0,0-3.53,2.35,2.35,2.35,0,0,0-.06.65v4A3.05,3.05,0,0,0,44.11,10.06Z"/><path class="cls-3" d="M66.88,38A28.44,28.44,0,1,1,20.64,15.79a5.08,5.08,0,0,0,1.95-4h0A5,5,0,0,0,14.4,8a38.41,38.41,0,1,0,48-.07,5,5,0,0,0-8.11,3.94h0a5,5,0,0,0,1.93,3.93A28.39,28.39,0,0,1,66.88,38Z"/><path class="cls-4" d="M27.53,39.35h0a2.75,2.75,0,0,0-2.75,2.71v4.18a1.46,1.46,0,0,1-2.75.67,18.63,18.63,0,1,1,32.8,0,1.45,1.45,0,0,1-2.72-.72V42.06a2.75,2.75,0,0,0-2.75-2.75h0a2.75,2.75,0,0,0-2.75,2.75v11a2.63,2.63,0,0,1-1.73,2.47h-.07a2.67,2.67,0,0,1-3.62-2.47v-2.8a2.75,2.75,0,0,0-2.75-2.74h0a2.74,2.74,0,0,0-2.74,2.74v2.8A2.7,2.7,0,0,1,33,55.75a2.62,2.62,0,0,1-.92-.16H32a2.64,2.64,0,0,1-1.72-2.47V42.06A2.75,2.75,0,0,0,27.53,39.35Z"/></g></g></svg>